<?xml version="1.0" encoding="UTF-8"?>
<svg id="Livello_2" data-name="Livello 2" xmlns="http://www.w3.org/2000/svg" viewBox="0 0 346.53 460.28">
  <defs>
    <style>
      .cls-1 {
        fill: #67c2c6;
      }
    </style>
  </defs>
  <g id="Livello_2-2" data-name="Livello 2">
    <g>
      <path class="cls-1" d="M143.6,107.36H43.24L0,288.04l41.37,25.08v147.15h104.1v-147.15l41.37-25.08-43.24-180.68ZM127.76,303.15v139.41H59.08v-139.41l-38.85-23.55L57.21,125.07h72.41l36.98,154.53-38.85,23.55Z"/>
      <path class="cls-1" d="M140.42,78.38V26.13L95.17,0l-45.25,26.13v52.25l45.25,26.13,45.25-26.13ZM67.62,36.35l27.54-15.9,27.54,15.9v31.8l-27.54,15.9-27.54-15.9v-31.8Z"/>
      <path class="cls-1" d="M267.93,254.52l-34.09-38.03v96.24l-53.72,51.85v49.12l-16.33-71.74-12.32.24,3.27,80.77,25.38,29.98v7.33h123.98v-128.93l42.43-32.21v-44.62h-78.6ZM328.82,290.34l-42.43,32.21v120.02h-5.73l-27.25-66.68h-40.26v17.71h28.35l20.03,48.97h-63.7v-70.45l53.72-51.88v-57.46l8.47,9.45h68.8v18.11Z"/>
    </g>
  </g>
</svg>