<?xml version="1.0" encoding="UTF-8"?>
<svg id="Livello_2" data-name="Livello 2" xmlns="http://www.w3.org/2000/svg" viewBox="0 0 425.7 399.63">
  <defs>
    <style>
      .cls-1 {
        fill: #67c2c6;
      }
    </style>
  </defs>
  <g id="Livello_2-2" data-name="Livello 2">
    <g>
      <path class="cls-1" d="M425.7,124.49l-33.45-8.51-26.66-28.46,5.26-7.44-13.92-.52-3.83-.16-68.09-2.59,17.21,29.76-34.91,29.88L95.28,0l-11.04,13.87,161.74,128.27-134.8,30-41.46,38.33L0,283.88l64.45-11.53-31.34,50.41,9.81,72.75,43.79,2.32,7.06.27,37.49,1.52-11.01-50.55,43.45-16.04,32.25-51.54,36.97,1.74,3.21,114.95,59.1-2.26,61.32,2.74-35.76-48.68.57-84.87,37.46-35.81-3.17-48.13,45.68-2.24,24.38-54.44ZM326.11,112.54l-8-13.83-1.7-2.95,13.59.5,7.47.29-11.35,15.99ZM340.57,222.22l-14.71,14.05-50.39-83.47,5.19-4.45,57.86,42.84,2.04,31.02ZM336.76,164.35l.24,3.69-42.52-31.5,16.76-14.34,13.34,23.1,30.53-43.02,27.76,29.58,18.05,4.61-11.34,25.32-52.82,2.56ZM299.92,378.4l-15.1-19.96,12.79-70.63,5.93-5.65-.47,73.57,17.33,23.58-20.48-.91ZM253.35,379.82l-3.19-113.51-106.88-4.98-27.66,49.47-46.93,15.38,7.99,53.41-18.17-.96-7.02-51.9,33.46-53.76v-52.44l34.75-32.13,43.62-9.71v62.58h95.01v-82.6l54.44,90.15-31.57,30.21-15.16,83.88,12.05,15.98-24.73.95ZM99.69,337.84l9.41,43.15-14.37-.57-6.29-42.08,39.27-12.85,25.67-45.98,22.23,1.04-23.72,37.96-52.2,19.33ZM181.02,223.54v-48.82l59.59-13.23v62.05h-59.59ZM67.23,238.82v15.04l-17.22,3.09,17.22-18.13Z"/>
      <polygon class="cls-1" points="219.67 174.27 201.95 174.27 201.95 188.09 190.12 188.09 190.12 205.8 201.95 205.8 201.95 219.62 219.67 219.62 219.67 205.8 231.49 205.8 231.49 188.09 219.67 188.09 219.67 174.27"/>
    </g>
  </g>
</svg>