<?xml version="1.0" encoding="UTF-8"?>
<svg id="Livello_2" data-name="Livello 2" xmlns="http://www.w3.org/2000/svg" viewBox="0 0 428.32 474.17">
  <defs>
    <style>
      .cls-1 {
        fill: #67c2c6;
      }
    </style>
  </defs>
  <g id="Livello_5" data-name="Livello 5">
    <path class="cls-1" d="M103.17,474.17L0,295.51,103.17,116.84h50.35v-17.23l24.09-13.87-34.27-19.81V21.98L181.38,0l38.07,21.98v43.95l-34.29,19.81,24.11,13.87v59.86h119.6l17.61,28.85-16.99,30.22-115.62-.35v38.38h111.83l23.66,42.06,78.96,136.78h-65.53l-15.29-27.1-38.04,65.87H103.17ZM17.44,295.51l94.43,163.57h188.88l38.13-66.04-19.66-34.84-38.36,66.45h-149.1l-74.57-129.15,74.57-129.13h21.75v-34.44h-41.65L17.44,295.51ZM356.82,394.11l14.77,26.19h30.38l-45.06-77.11-20.73-37.21-19.32-34.32h-118.1v-53.5h-30.16v62.72l24.31,24.31h113.72l50.19,88.92ZM74.62,295.51l65.84,114.05h131.69l38.45-66.62-12.77-22.65h-111.19l-33.14-33.13v-105.68h-13.05l-65.84,114.04ZM205.2,203.07h1.12l74.84.29,39.53.07,8.31-14.77-8.61-14.08h-126.21v-66.23l-12.79-7.38-12.77,7.38v94.73h30.16v-.02l6.43.02ZM158.43,30.7v26.51l22.96,13.26,22.97-13.26v-26.51l-22.97-13.26-22.96,13.26Z"/>
  </g>
</svg>