<?xml version="1.0" encoding="UTF-8"?>
<svg id="Livello_2" data-name="Livello 2" xmlns="http://www.w3.org/2000/svg" viewBox="0 0 509.26 452.7">
  <defs>
    <style>
      .cls-1 {
        fill: #67c2c6;
      }
    </style>
  </defs>
  <g id="Livello_2-2" data-name="Livello 2">
    <g>
      <polygon class="cls-1" points="227.28 94.44 196 112.5 208.77 125.28 254.63 98.81 365.07 162.59 365.07 281.54 382.52 298.99 382.52 152.51 281.98 94.44 341.58 94.44 483.61 226.33 393.51 309.98 405.85 322.32 509.26 226.33 348.43 76.99 160.49 76.99 177.94 94.44 227.28 94.44"/>
      <path class="cls-1" d="M28.3,12.34l97.35,97.35L0,226.33l160.83,149.33h187.6l22.4-20.79,97.83,97.83,12.34-12.34L40.64,0l-12.34,12.34ZM282.02,358.22l58.44-33.71,18.03,18.03-16.9,15.69h-59.56ZM126.74,152.51v147.67l100.5,58.03h-59.56L25.65,226.33l112.34-104.3,15.19,15.2-26.44,15.28ZM168.66,226.33l42.99,74.47h85.97l7-12.13,23.06,23.06-73.05,42.17-110.44-63.78v-127.52l21.78-12.58,29.65,29.65-26.95,46.68ZM287.54,283.35h-65.82l-32.91-57.02,19.58-33.9,83.45,83.46-4.3,7.46Z"/>
      <polygon class="cls-1" points="329.35 245.81 340.6 226.33 297.61 151.86 235.35 151.86 252.8 169.31 287.54 169.31 320.48 226.33 316.6 233.07 329.35 245.81"/>
    </g>
  </g>
</svg>