<?xml version="1.0" encoding="UTF-8"?>
<svg id="Livello_2" data-name="Livello 2" xmlns="http://www.w3.org/2000/svg" viewBox="0 0 465.76 465.71">
  <defs>
    <style>
      .cls-1 {
        fill: #67c2c6;
      }
    </style>
  </defs>
  <g id="Livello_2-2" data-name="Livello 2">
    <g>
      <polygon class="cls-1" points="163.59 85.47 278.56 70.99 348.61 163.33 309.93 255.29 323.45 268.81 368.91 160.78 286.52 52.15 151.21 69.17 143.07 88.44 156.64 102 163.59 85.47"/>
      <polygon class="cls-1" points="274.03 219.39 290.37 180.61 252.48 130.61 192.8 138.16 208.67 154.03 244.52 149.5 270.06 183.16 260.51 205.87 274.03 219.39"/>
      <polygon class="cls-1" points="357.37 289.89 373.7 296.76 433.55 154.56 340.33 31.63 326.21 42.33 413.26 157.11 357.37 289.89"/>
      <polygon class="cls-1" points="12.57 0 0 12.51 123.21 135.71 99.17 192.92 115.47 199.77 136.73 149.24 280.78 293.29 232.84 338.06 215.58 402.41 158.61 417.67 116.9 375.97 125.19 344.92 108.12 340.32 97.13 381.28 153.3 437.44 230.04 416.87 248.65 347.52 293.34 305.81 453.24 465.71 465.76 453.19 12.57 0"/>
    </g>
  </g>
</svg>