<?xml version="1.0" encoding="UTF-8"?>
<svg id="Livello_2" data-name="Livello 2" xmlns="http://www.w3.org/2000/svg" viewBox="0 0 343.65 444.48">
  <defs>
    <style>
      .cls-1 {
        fill: #67c2c6;
      }
    </style>
  </defs>
  <g id="Livello_2-2" data-name="Livello 2">
    <g>
      <path class="cls-1" d="M283.31,63.29h-39.17v-30.05L208.45,0h-73.41l-33.7,33.41v29.89h-38.58L0,143.61v300.87h343.65V143.71l-60.34-80.42ZM119.05,40.79l23.28-23.07h59.15l24.95,23.24v22.34h-107.38v-22.51ZM259.32,426.77H82.83v-101.73h112.7v41.15h17.71v-41.15h46.08v101.73ZM259.32,307.33H82.83v-24.09l28.57-30.79h119.35l28.57,30.79v24.09ZM325.93,426.77h-48.9v-150.48l-38.55-41.56H103.67l-38.55,41.56v150.48H17.71V149.71l53.68-68.71h203.06l51.48,68.61v277.16Z"/>
      <rect class="cls-1" x="123.06" y="149.52" width="98.2" height="17.71"/>
    </g>
  </g>
</svg>