<?xml version="1.0" encoding="UTF-8"?>
<svg id="Livello_2" data-name="Livello 2" xmlns="http://www.w3.org/2000/svg" viewBox="0 0 395.57 373.24">
  <defs>
    <style>
      .cls-1 {
        fill: #67c2c6;
      }
    </style>
  </defs>
  <g id="Livello_2-2" data-name="Livello 2">
    <path class="cls-1" d="M355.13,55.16h-97.71V0h-124.02v55.16H44.6L0,93.52v206.17l44,47.94h9.16l-2.52,4.38,12.23,21.23h24.55l12.23-21.23-2.52-4.38h201.24l-2.52,4.38,12.23,21.23h24.51l12.27-21.23-2.53-4.38h12.8l40.44-38.81V93.81l-40.45-38.65ZM239.7,17.71v37.45h-88.59V17.71h88.59ZM48.97,247.18l39.94-16.74,34.45,26.24-5.49,42.94-39.94,16.7-34.45-26.21,5.49-42.94ZM134.12,311.98l8.09-63.2-50.7-38.6-58.83,24.6-8.05,63.2,41.9,31.93h-14.74l-34.08-37.09V101.66l33.44-28.79h101.39l-40.31,104.27,102.89,39.78,41.41-107.11-95.53-36.93h187l29.86,28.5v137.96l-9.39-31.1-33.32-18.58-137.99,41.6,21.84,72.47,34.84,15.41,124.04-37.38v19.51l-29.87,28.65H91.34l42.77-17.94ZM135.14,167.01l28.63-74.07,69.84,27-28.63,74.07-69.84-27ZM333.08,208.77l20.51,11.44,13.93,46.17-112.52,33.91-21.42-9.46-14.39-47.73,113.89-34.33Z"/>
  </g>
</svg>