<?xml version="1.0" encoding="UTF-8"?>
<svg id="Livello_2" data-name="Livello 2" xmlns="http://www.w3.org/2000/svg" viewBox="0 0 310.74 491.26">
  <defs>
    <style>
      .cls-1 {
        fill: #67c2c6;
      }
    </style>
  </defs>
  <g id="Livello_2-2" data-name="Livello 2">
    <g>
      <path class="cls-1" d="M310.74,136.59l-48.3-48.09h-52.82V0h-108.79v88.5h-55.97L0,136.82v272.96l36.47,34.94-9.25,16.01,17.62,30.52h35.2l17.62-30.52-1.7-2.93h120.41l-1.7,2.93,17.62,30.52h35.2l17.62-30.52-10.58-18.29,36.19-32.49V136.59ZM191.92,17.71v70.79h-73.37V17.71h73.37ZM293.03,143.97v258.08l-32.26,28.97-10.12,9.07H57.26l-8.89-8.54-30.66-29.33V143.78l34.89-37.57h202.53l37.9,37.75Z"/>
      <rect class="cls-1" x="85.34" y="148.52" width="17.71" height="251.95"/>
      <rect class="cls-1" x="147.31" y="148.52" width="17.71" height="251.95"/>
      <rect class="cls-1" x="209.3" y="148.52" width="17.71" height="251.95"/>
    </g>
  </g>
</svg>