<?xml version="1.0" encoding="UTF-8"?>
<svg id="Livello_2" data-name="Livello 2" xmlns="http://www.w3.org/2000/svg" viewBox="0 0 465.07 424.68">
  <defs>
    <style>
      .cls-1 {
        fill: #67c2c6;
      }
    </style>
  </defs>
  <g id="Livello_1-2" data-name="Livello 1">
    <g>
      <path class="cls-1" d="M361.94,0l43.95,75.85,59.18,28.65v320.18l-158.2-44.29-139.6,41.89L0,376.45c.02-5.88-.02-11.77,0-17.65.14-36.11.67-72.62.8-108.8.24-64.52.16-129.03.38-193.54l158.51,43.45,60.29-23.66L263.91,0h98.03ZM311.36,213.65l80.78-128.38-39.2-68.62-1.01-.56-78.62.18-39.53,68.33,1.43,3.5,76.15,125.55ZM151.74,114.52L17.26,77.64c-.3,57.46-.52,249.75-1.01,286.67l134.72,36.91c.25-15.02.76-286.71.76-286.71ZM298.81,366.25v-87.25l16.08-4.9v91.76l134.11,37.64V114.7l-43.14-20.81-94.49,151.59-91.37-151.59-51.98,20.21-.96,289.74,131.75-37.58Z"/>
      <path class="cls-1" d="M290.2,123.05l-23.14-40.17,23.14-40.44,46.58.12,23.15,40.02-.22.93c-5.99,9.91-11.53,20.09-17.37,30.09-1.06,1.82-4.15,7.86-5.21,8.91-.28.27-.41.65-.93.63l-46-.09ZM327.7,58.49l-27.59-.07-.79.39-13.52,24.09,13.72,23.95,27.25.18c1.17-.23,1.98-2.21,2.62-3.26,4.22-6.91,8-14.15,12.01-21.18l-13.71-24.11Z"/>
    </g>
  </g>
</svg>