<?xml version="1.0" encoding="UTF-8"?>
<svg id="Livello_2" data-name="Livello 2" xmlns="http://www.w3.org/2000/svg" viewBox="0 0 459.9 410.17">
  <defs>
    <style>
      .cls-1 {
        fill: #67c2c6;
      }
    </style>
  </defs>
  <g id="Livello_1-2" data-name="Livello 1">
    <g>
      <path class="cls-1" d="M434.88,0l25.03,43.79-25.22,43.65h-17.06v322.73H0l3.27-16.08h398.28V87.45h-17.25l-24.95-43.72L384.29,0h50.59ZM393.96,16.14l-15.88,27.28c-.14.98,4.47,8.61,5.36,10.17,3.37,5.97,6.91,11.89,10.52,17.71l31.5-.14,15.62-26.77c.33-1.32-3.29-7.01-4.18-8.59-3.7-6.63-7.68-13.25-11.7-19.67h-31.24Z"/>
      <path class="cls-1" d="M256.06,133.72h81.56v196.07H61.96v-196.07h81.37l26.14-43.46h60.46s26.14,43.46,26.14,43.46ZM237.24,133.72l-16.34-27.39h-41.82s-16.74,27.39-16.74,27.39h74.9ZM127.05,149.8h-49.02v163.91h49.02v-81.96l16.08-3.27v85.22h113.72v-163.91h-113.72v53.72l-16.08,3.27v-56.99ZM321.55,149.8h-48.62v163.91h48.62v-163.91Z"/>
      <polygon class="cls-1" points="359.2 361.94 355.93 378.02 42.74 378.02 46.01 361.94 359.2 361.94"/>
    </g>
  </g>
</svg>