<?xml version="1.0" encoding="UTF-8"?>
<svg id="Livello_2" data-name="Livello 2" xmlns="http://www.w3.org/2000/svg" viewBox="0 0 467.42 264.69">
  <defs>
    <style>
      .cls-1 {
        fill: #67c2c6;
      }
    </style>
  </defs>
  <g id="Livello_1-2" data-name="Livello 1">
    <g>
      <path class="cls-1" d="M287.04,0l12.94,28.04,22.96.22,13.12-28.26h63.92l67.45,67.64v197.05h-131.37l-12.54-27.65-23.97.04-12.15,26.98-.94.63H68.04S0,197.24,0,197.24V0h287.04ZM276.85,16.08H16.67l-.59.59v173.32l59.03,58.62,201.48.02,13.38-27.89,44.08.08,12.8,27.79h104.5V74.31l-58.31-58.15-46.13-.02-13.19,27.98-43.74.22-13.12-28.26Z"/>
      <path class="cls-1" d="M368.28,219.53l-22.27-38.95,22.17-38.76,45.53-.06,22.32,38.83-22.33,38.82-45.42.14ZM404.62,157.7l-26.04-.09-1.31.65-12.56,22.32,12.99,22.85,25.99.07c1.17-.23,1.98-2.21,2.63-3.26,3.93-6.45,7.42-13.22,11.23-19.74l-12.93-22.81Z"/>
      <polygon class="cls-1" points="234.63 156.85 231.36 172.93 61.96 172.93 65.23 156.85 234.63 156.85"/>
      <polygon class="cls-1" points="65.23 189.01 234.63 189.01 231.36 205.09 61.96 205.09 65.23 189.01"/>
      <polygon class="cls-1" points="154.24 65.88 150.97 81.96 61.96 81.96 65.23 65.88 154.24 65.88"/>
    </g>
  </g>
</svg>