<?xml version="1.0" encoding="UTF-8"?>
<svg id="Livello_2" data-name="Livello 2" xmlns="http://www.w3.org/2000/svg" viewBox="0 0 512 443.44">
  <defs>
    <style>
      .cls-1 {
        fill: #67c2c6;
      }
    </style>
  </defs>
  <g id="Livello_1-2" data-name="Livello 1">
    <path class="cls-1" d="M383.9,0l14,23.45,43.98.14,54.01,93.65-.14,1.86-21.53,37.17,37.78,65.49-39.09,67.86c-.08.86.73,2,1.11,2.79,6.05,12.43,15.09,24.57,21.45,36.97l.5,2.07-54.11,93.96-47.11.14-10.53,17.9-256-.13-10.46-17.86-46.92-.05-54.6-94.05.13-1.45,23.09-39.93L0,221.95v-.39l37.89-65.29-20.7-36.01-1.04-2.71L70.25,23.59l43.98-.14L128.23,0h255.67ZM222.73,16.08h-85.49L37.25,189.79h85.49l57.45-99.6h42.55V16.08ZM238.81,16.08v74.11h37.25V16.08h-37.25ZM374.88,16.08h-82.74v74.11h39.8l57.45,99.6h85.49L374.88,16.08ZM105.09,39.61h-25.49l-44.95,78.03,12.4,22.36,58.03-100.39ZM407.04,39.61l57.84,100.38,12.58-22.35-45.13-78.03h-25.29ZM189.66,106.33l-66.77,115.22,66.51,115.48h133.33s66.47-114.73,66.47-114.73v-1.12s-66.47-114.73-66.47-114.73l-133.07-.13ZM112.93,205.87H28.04l-9.2,15.88,12.34,21.37h84.9l-11.73-21.37,8.6-15.88ZM396.06,243.12h84.9l12.33-21.37-9.19-15.88h-84.9l8.6,15.88-11.73,21.37ZM125.88,259.2H40.39l96.86,168.23h85.49v-74.11h-42.55l-54.31-94.11ZM471.74,259.2h-85.49l-54.31,94.11h-39.8v74.11h82.74l96.86-168.23ZM108.23,409.39l-59.41-103.12-14.13,24.73,44.91,78.4h28.63ZM432.52,409.39l44.94-78.03v-.8s-14.16-24.3-14.16-24.3l-59.41,103.12h28.63ZM238.81,353.31v74.11h37.25v-74.11h-37.25Z"/>
  </g>
</svg>