<?xml version="1.0" encoding="UTF-8"?>
<svg id="Livello_2" data-name="Livello 2" xmlns="http://www.w3.org/2000/svg" viewBox="0 0 495.59 309.78">
  <defs>
    <style>
      .cls-1 {
        fill: #67c2c6;
      }
    </style>
  </defs>
  <g id="Livello_1-2" data-name="Livello 1">
    <g>
      <path class="cls-1" d="M459.97,0l35.62,155.09-35.41,154.31-122.55.38-14.9-66.27H13.72v-16.08h305.08l-2.35-10.98H13.72v-16.08h29.02L0,165.88l154-96.38,167.88-.15L338.02,0h121.95ZM417.23,69.02l-12.13-52.77-54.31-.19-11.99,52.96h78.43ZM447.42,293.71l31.63-138.96-31.42-137.12-.8-1.56h-24.9l31.4,138.62-31.4,139.01h25.49ZM425.07,103.52c-1.51-5.37-2.06-11.99-3.79-17.18-.21-.64-.29-1.21-1.1-1.25-86.94.03-173.83.68-260.79.38l-48.8,30.6h41.37l21.64-15.64,9.48,12.38c.09.62-.76,1.11-1.16,1.46-7.26,6.31-17.12,11.5-24.65,17.7l-72.67.26-47.73,30.11h139.01l81.96-23.14h138.62v16.08h-136.66l-81.96,23.14H41.96l27.16,21.66,357.29.32,10.46-45.32-7.87-35.49h-99.99v-16.08h96.07ZM422.72,216.46h-89.8l2.36,10.98,84.52.03c.58.08.51-.14.69-.51.34-.72,2.62-10.12,2.24-10.5ZM416.44,243.52h-77.25l11.61,50.22,54.29-.2,11.35-50.02Z"/>
      <rect class="cls-1" x="263.9" y="104.7" width="41.57" height="16.08"/>
    </g>
  </g>
</svg>