<?xml version="1.0" encoding="UTF-8"?>
<svg id="Livello_2" data-name="Livello 2" xmlns="http://www.w3.org/2000/svg" viewBox="0 0 456.69 495.49">
  <defs>
    <style>
      .cls-1 {
        fill: #67c2c6;
      }
    </style>
  </defs>
  <g id="Livello_4" data-name="Livello 4">
    <g>
      <path class="cls-1" d="M404.42,28.06V0h-15.07v28.06H67.88V0h-15.07v28.06H0v179.6h408.56l48.14-48.14V28.06h-52.27ZM441.62,153.27l-39.3,39.32H15.07V43.14h426.55v110.14Z"/>
      <rect class="cls-1" x="164.58" y="83.53" width="232.31" height="15.07"/>
      <rect class="cls-1" x="165.08" y="136.15" width="232.31" height="15.07"/>
      <polygon class="cls-1" points="120.1 115.4 90.77 144.74 80.1 134.08 91.25 122.94 54.33 122.94 54.33 107.86 91.25 107.86 79.89 96.51 90.55 85.84 120.1 115.4"/>
      <path class="cls-1" d="M455.7,422.89v-64.78h-11.17v-75.87l-29.43-38.14h-58.59l-29.42,38.14v75.87h-12.51v25.61h-15.69v-25.61h-11.17v-75.87l-29.42-38.14h-58.6l-29.42,38.14v75.87h-12.51v25.61h-15.22v-25.75h-11.18v-75.86l-29.42-38.15h-58.59l-29.43,38.15v75.86H1.44v64.79h63.02v57.66H4.45v15.07h448.63v-15.07h-60.39v-57.53h63.02ZM342.17,287.38l21.76-28.2h43.76l21.77,28.2v70.73h-87.29v-70.73ZM185.37,287.38l21.76-28.2h43.78l21.76,28.2v70.73h-87.29v-70.73ZM172.86,373.18h110.97v34.63h-110.97v-34.63ZM29.02,287.25l21.77-28.21h43.76l21.76,28.21v70.72H29.02v-70.72ZM16.52,407.69v-34.64h110.97v34.64H16.52ZM220.8,480.42H79.54v-57.66h63.02v-23.97h15.22v24.09h63.02v57.53ZM377.61,480.42h-141.73v-57.53h63.02v-24.09h15.69v24.09h63.02v57.53ZM329.66,407.82v-34.63h110.97v34.63h-110.97Z"/>
    </g>
  </g>
</svg>