<?xml version="1.0" encoding="UTF-8"?>
<svg id="Livello_2" data-name="Livello 2" xmlns="http://www.w3.org/2000/svg" viewBox="0 0 304.21 512">
  <defs>
    <style>
      .cls-1 {
        fill: #67c2c6;
      }
    </style>
  </defs>
  <g id="Livello_4" data-name="Livello 4">
    <g>
      <path class="cls-1" d="M222.92,175.21h-80.67l-40.33-69.85,40.33-69.85h80.67l40.33,69.85-40.33,69.85ZM150.95,160.13h63.26l31.62-54.78-31.62-54.78h-63.26l-31.62,54.78,31.62,54.78Z"/>
      <path class="cls-1" d="M183.35,290.28l82.53-147.36v-.03l-82.53,147.38Z"/>
      <path class="cls-1" d="M243.4,0h-121.64l-19.16,33.17h-60.06L0,75.72v395.02l41.26,41.26h181.69l42.92-42.91V173.75l38.34-68.46L243.4,0ZM250.8,462.83l-34.09,34.09H47.52l-32.45-32.43v-29.59h235.73v27.94ZM15.07,419.82V81.98l33.73-33.73h45.1l-32.95,57.08,122.5,215.63,67.35-120.27v219.15H15.07ZM183.35,290.28L78.31,105.38l41.69-72.2,10.45-18.1h104.26l52.17,90.34-21,37.51-82.53,147.36Z"/>
      <path class="cls-1" d="M151.75,487.19h-35.03l-22.48-21.28,22.48-21.28h35.03l22.48,21.28-22.48,21.28ZM122.72,472.11h23.03l6.55-6.2-6.55-6.2h-23.03l-6.55,6.2,6.55,6.2Z"/>
      <path class="cls-1" d="M222.91,35.5h-80.66l-40.33,69.85,40.33,69.85h80.66l40.33-69.85-40.33-69.85ZM214.22,160.13h-63.27l-31.62-54.78,31.62-54.78h63.27l31.62,54.78-31.62,54.78ZM222.91,35.5h-80.66l-40.33,69.85,40.33,69.85h80.66l40.33-69.85-40.33-69.85ZM214.22,160.13h-63.27l-31.62-54.78,31.62-54.78h63.27l31.62,54.78-31.62,54.78ZM222.91,35.5h-80.66l-40.33,69.85,40.33,69.85h80.66l40.33-69.85-40.33-69.85ZM214.22,160.13h-63.27l-31.62-54.78,31.62-54.78h63.27l31.62,54.78-31.62,54.78Z"/>
      <path class="cls-1" d="M222.92,175.21h-80.67l-40.33-69.85,40.33-69.85h80.67l40.33,69.85-40.33,69.85ZM150.95,160.13h63.26l31.62-54.78-31.62-54.78h-63.26l-31.62,54.78,31.62,54.78Z"/>
      <path class="cls-1" d="M222.92,175.21h-80.67l-40.33-69.85,40.33-69.85h80.67l40.33,69.85-40.33,69.85ZM150.95,160.13h63.26l31.62-54.78-31.62-54.78h-63.26l-31.62,54.78,31.62,54.78Z"/>
      <polygon class="cls-1" points="183.11 142.06 170.29 134.13 185.37 109.74 165.19 95.93 186.92 59.06 199.9 66.72 185.33 91.44 205.76 105.43 183.11 142.06"/>
    </g>
  </g>
</svg>