<?xml version="1.0" encoding="UTF-8"?>
<svg id="Livello_2" data-name="Livello 2" xmlns="http://www.w3.org/2000/svg" viewBox="0 0 370.28 497.15">
  <defs>
    <style>
      .cls-1 {
        fill: #67c2c6;
      }
    </style>
  </defs>
  <g id="Livello_4" data-name="Livello 4">
    <g>
      <path class="cls-1" d="M349.12,209.6h21.17v-45.81h-12.49l-41.9-109.61L220.5,9.58V0h-46.39v163.79h-47.03L42.14,70.97H0v15.07h35.51l71.15,77.74H25.51v45.81h18.25v57.95l34.04,35.11h81.62l-42.56,72.06h-63.25l-35.1,60.78,35.1,60.77h70.18l30.74-53.23h86.27l31.24,54.11h63.07l31.53-54.62-31.53-54.62h-24.19v-23.25l-56.75-62.02h94.94v-93.05ZM341.66,163.79h-112.16l77.89-89.65,34.27,89.65ZM220.5,26.23l77.2,36.08-77.2,88.85V26.23ZM189.19,15.07h16.24v148.71h-16.24V15.07ZM355.21,178.86v15.66h-199.99l-14.33-15.66h214.32ZM40.59,194.52v-15.66h79.86l14.33,15.66H40.59ZM84.19,287.58l-25.35-26.15v-51.83h89.75l39.98,43.7-20.24,34.28h-84.15ZM199.21,264.92l20.74,22.66h-34.12l13.38-22.66ZM115.1,481.2h-52.77l-26.39-45.7,26.39-45.71h52.77l26.38,45.71-26.38,45.7ZM154.54,427.96l-9.53-16.51h113.45l-9.52,16.51h-94.4ZM326.42,402.99l22.84,39.54-22.84,39.54h-45.66l-22.84-39.54,22.84-39.54h45.66ZM295.86,370.52v17.4h-23.8l-4.89,8.47h-130.85l-7.29-12.61,47.91-81.12h56.8l62.12,67.87ZM334.04,287.58h-93.67l-71.36-77.98h165.03v77.98Z"/>
      <path class="cls-1" d="M106.03,465.5h-34.65l-17.32-30.01,17.32-30.01h34.65l17.32,30.01-17.32,30.01ZM80.09,450.43h17.24l8.62-14.93-8.62-14.93h-17.24l-8.62,14.93,8.62,14.93Z"/>
      <path class="cls-1" d="M315.92,463.89h-24.66l-12.33-21.35,12.33-21.35h24.66l12.33,21.35-12.33,21.35ZM299.96,448.81h7.25l3.62-6.28-3.62-6.28h-7.25l-3.62,6.28,3.62,6.28Z"/>
    </g>
  </g>
</svg>