<?xml version="1.0" encoding="UTF-8"?>
<svg id="Livello_2" data-name="Livello 2" xmlns="http://www.w3.org/2000/svg" viewBox="0 0 428.81 498.92">
  <defs>
    <style>
      .cls-1 {
        fill: #67c2c6;
      }
    </style>
  </defs>
  <g id="Livello_4" data-name="Livello 4">
    <g>
      <path class="cls-1" d="M278.99,357.99l-19.13-34h-87.63v-27.13l90.62.28,14.32-25.47-14.85-24.32h-93.72v-46.59l-17.45-10.04,25.49-14.72v-36.52l-31.63-18.26-31.62,18.26v36.52l25.47,14.72-17.44,10.04v12.94h-39.08L0,356.3l82.35,142.62h164.67l29.1-50.4,11.17,19.78h55.38l-63.67-110.3M128.46,167.28v-19.11l16.54-9.56,16.56,9.56v19.11l-16.56,9.56-16.54-9.56ZM136.5,209.46l8.5-4.91,8.52,4.91v52.95h100.33l5.85,9.57-5.65,10.05-30.27-.05-59.09-.23h-.88l-6.66-.03v.03h-20.65v-72.29ZM148.51,377.44h87.5l9.18,16.29-29.44,51.02h-102.14l-51.06-88.46,51.06-88.44h7.81v82.5l27.08,27.08ZM238.33,483.85H91.04l-73.63-127.55,73.63-127.55h30.39v24.03h-16.51l-59.78,103.52,59.78,103.53h119.52l29.36-50.85,13.72,24.31-29.19,50.56ZM284.88,433.37l-2.11-3.74-37.96-67.25h-90.04l-18.26-18.26v-47.28h20.65v42.23h93.88l14.8,26.29v.03s16.38,29.37,16.38,29.37l34.18,58.5h-20.31l-11.2-19.87Z"/>
      <path class="cls-1" d="M428.81,52.03V0h-81.35c-6.57,0-12.81,2.21-18.06,6.39-.18.14-.35.29-.53.44l1.86-6.83h-50.3l-6.81,24.81-6.85-24.81h-39.61l-6.75,24.62-6.75-24.62h-50.42l38.68,141.89h36.85l8.19-29.95,8.23,29.95h36.84l23.13-84.84v46.79c0,6.34,1.23,12.31,3.64,17.71,2.52,5.67,6.09,10.35,10.61,13.97,5.25,4.16,11.48,6.37,18.03,6.37h81.35v-52.04h-61.97v-37.82h61.97ZM280.53,126.82h-13.83l-19.77-71.88-19.65,71.88h-13.83l-30.46-111.75h19.18l18.26,66.58,18.24-66.58h16.62l18.38,66.58,18.25-66.58h19.07l-30.46,111.75ZM352.76,103.62c.65.87,1.6,1.31,2.84,1.31h58.13v21.89h-66.27c-3.18,0-6.05-1.04-8.65-3.1-2.59-2.07-4.67-4.84-6.22-8.3-1.56-3.47-2.34-7.32-2.34-11.57V38.04c0-4.23.78-8.1,2.34-11.57,1.55-3.47,3.63-6.22,6.22-8.29,2.6-2.07,5.48-3.1,8.65-3.1h66.27v21.88h-58.13c-1.24,0-2.19.41-2.84,1.24-.65.83-.99,2.11-.99,3.87v57.74c0,1.65.34,2.91.99,3.81Z"/>
    </g>
  </g>
</svg>