<?xml version="1.0" encoding="UTF-8"?>
<svg id="Livello_2" data-name="Livello 2" xmlns="http://www.w3.org/2000/svg" viewBox="0 0 446.34 500.05">
  <defs>
    <style>
      .cls-1 {
        fill: #67c2c6;
      }
    </style>
  </defs>
  <g id="Livello_4" data-name="Livello 4">
    <g>
      <path class="cls-1" d="M180.53,459.68h-74.59l-31.98-30.08-.61-58.07h140.25l.33,58.12-33.39,30.03ZM111.91,444.61h62.84l24.06-21.64-.2-36.37h-110.02l.38,36.42,22.95,21.59Z"/>
      <path class="cls-1" d="M401.25,112.47h-24.33v-39.68h9.07V0h-111.71v72.79h9.95v39.68h-20.42l-47.57,47.57v45.89h-41.28l-.14-15.31-14.78-28.94h-32.95l-14.81,28.99.08,15.26h-42.51l-38.14,40.41v125.29l-13.26.31L0,397.1v45.26l18.54,25.3,13.16-.18v3.13l29.44,29.44h165.73l26.47-26.44v-6.18l4.12-.1.05,11.91,8.25,20.81h21.91l8.27-20.84-.04-16.76h67.89l.08,16.78,8.25,20.81h21.91l8.27-20.84-.04-16.76h3.1l40.98-40.98V157.59l-45.1-45.12ZM28.14,452.46l-2.02.03-11.04-15.06v-35.4l11.14-15.19,1.92-.05v65.67ZM361.84,112.47h-62.54v-39.68h10.64v-33.79l40.38-.11v33.9h11.52v39.68ZM289.35,15.07h81.56v42.65h-5.51V23.78l-70.53.2v33.74h-5.51V15.07ZM195.3,221.53h6.09v96.52h-6.09v-96.52ZM210.88,333.13l-5.09,5.43h-13.63l-5.09-5.43h23.8ZM136.3,176.75h14.51l8.96,17.56.11,11.62h-32.46l-.05-11.67,8.93-17.51ZM106.27,221h73.96v70.67h-73.96v-70.67ZM85.1,221h6.09v96.53h-6.09v-96.53ZM100.67,332.61l-5.07,5.43h-13.63l-5.07-5.43h23.78ZM46.78,252.32l23.25-24.63v63.99h-23.25v-39.35ZM238.28,467.36l-17.62,17.62H67.4l-20.63-20.63v-157.61h23.25v10.79h-9.25l.34,20.29,14.31,15.29h26.69l14.38-15.36-.16-20.21h-10.07v-10.79h73.96v11.31h-9.25l.34,20.3,14.31,15.27h26.69l14.38-15.35-.18-20.22h-10.06v-11.31h21.81v160.61ZM238.28,291.67h-21.81v-70.67h4.17l17.64,17.64v53.03ZM266.41,437.11l-11.14,15.19-1.92.05v-65.67l2.03-.03,11.03,15.06v35.4ZM277.44,484.98h-1.43l-3.43-8.65-.05-11.95,1.65-1.92h6.66l.04,13.89-3.43,8.63ZM383.8,484.98h-1.43l-3.43-8.65-.06-13.87h8.32l.04,13.89-3.43,8.63ZM431.27,415.23l-32.14,32.16h-121.56l3.92-5.35v-45.25l-6.39-8.73h2.39v-239.03h-15.07v222.46l-9.06.11v-139.22l-22.05-22.05v-44.04l38.75-38.75h124.94l36.28,36.28v251.4Z"/>
      <rect class="cls-1" x="383.39" y="149.02" width="15.07" height="266"/>
      <rect class="cls-1" x="344.19" y="149.02" width="15.07" height="266"/>
      <rect class="cls-1" x="301.57" y="149.02" width="15.07" height="266"/>
    </g>
  </g>
</svg>