<?xml version="1.0" encoding="UTF-8"?>
<svg id="Livello_2" data-name="Livello 2" xmlns="http://www.w3.org/2000/svg" viewBox="0 0 359.36 492.23">
  <defs>
    <style>
      .cls-1 {
        fill: #67c2c6;
      }
    </style>
  </defs>
  <g id="Livello_4" data-name="Livello 4">
    <path class="cls-1" d="M0,492.23l38.35-55.13,57.35-7.54-27.36-35.03,22.12-96.65,42.12-159.87,36.08-8.46-39.47-38.54,18.13-71.14L218,0l52.57,51.27-18.13,71.16-56.88,15.98,16.66,39.9-32.45,109.16,129.67,48.26,18.9,36.4-8.6,10.01,39.62,110.08H0ZM45.54,448.91l-21.33,30.67h317.19l-31.02-86.55-4.2,4.92-179.43-46.77-27.06-36.99-17.67,77.3,28.85,36.95h156.8v12.65H105.03l-59.5,7.83ZM142.86,148.6l-39.35,149.36,30.78,42.1,167.44,43.64,11.44-13.32-12.73-24.48-136.19-50.7,34.54-116.17-16.57-39.66-39.37,9.24ZM157.78,30.08l-14.53,56.99,42.07,41.08,56.65-15.93,14.53-56.99-42.11-41.08-56.62,15.93Z"/>
  </g>
</svg>