<?xml version="1.0" encoding="UTF-8"?>
<svg id="Livello_2" data-name="Livello 2" xmlns="http://www.w3.org/2000/svg" viewBox="0 0 411.41 410.55">
  <defs>
    <style>
      .cls-1 {
        fill: #67c2c6;
      }
    </style>
  </defs>
  <g id="Livello_6" data-name="Livello 6">
    <path class="cls-1" d="M411.41,199.36l-102.19-63.23v37.21h-30.98L236.02,29.03h-38.82L188.7,0H60.05L0,205.28l60.05,205.28h128.65l8.49-29.03h38.82l43.94-150.2h29.26v36.81l102.19-68.77ZM174.69,391.86h-100.63L19.48,205.28,74.06,18.69h100.63l3.03,10.34h-53.37l-51.56,176.24,51.56,176.24h53.37l-3.03,10.34ZM222.01,362.83h-83.65l-46.09-157.55,46.09-157.55h83.65l36.74,125.62h-19.35l-31.28-106.93h-19.48l31.28,106.93h-93.72v57.97h95.45l-33.01,112.81h19.48l33.01-112.81h19.35l-38.47,131.51ZM144.9,212.63v-20.59h183.01v-22.35l49.04,30.34-49.04,32.99v-20.4h-183.01Z"/>
  </g>
</svg>